<svg width="207" height="206" viewBox="0 0 207 206" fill="none" xmlns="http://www.w3.org/2000/svg">
<g clip-path="url(#clip0_289_8)">
<path d="M172.434 205.979C176.5 205.281 177.619 185.453 175.104 175.05C172.59 164.648 153.032 126.793 140.264 117.648C127.498 108.502 124.978 110.164 120.488 105.92C115.998 101.676 112.902 99.9063 114.53 98.8434C116.157 97.7806 118.793 99.0136 123.317 102.565C127.842 106.117 135.856 112.433 141.571 114.614C147.284 116.795 169.846 117.017 178.907 118.286C187.967 119.555 206.032 119.042 206.96 114.299C207.888 109.555 192.61 92.9297 179.683 88.9764C166.756 85.0233 145.574 78.0332 130.71 81.1934C115.846 84.3536 118.696 88.2417 112.2 88.9918C105.704 89.7418 92.1776 81.552 84.6236 72.877C77.0697 64.2021 74.5145 61.0148 75.918 58.2184C77.3216 55.422 83.9062 55.07 88.0029 57.9669C92.0997 60.8636 96.1486 66.552 102.246 67.7333C108.343 68.9147 130.961 70.4387 136.926 69.9307C142.894 69.4228 156.163 67.7974 161.134 68.1613C166.104 68.5253 177.876 71.9837 179.7 68.6708C182.619 62.7871 169.491 51.2685 149.928 42.6369C130.364 34.0051 112.623 37.6973 108.919 39.2757C105.216 40.854 96.1526 44.4918 91.8063 47.4371C87.4602 50.3825 85.4646 53.2714 78.8859 53.0559C72.3073 52.8402 69.0183 52.7312 60.6414 47.0801C52.2645 41.4292 26.1614 22.9074 22.6171 17.6739C33.4007 18.504 29.8757 20.7487 38.1916 22.5185C46.5076 24.2882 49.2786 23.7127 56.5779 26.681C63.8771 29.6495 92.3534 27.4747 100.682 22.2596C104.971 19.7562 114.429 22.5979 114.931 20.707C115.433 18.8162 115.95 18.3362 109.951 16.0298C103.951 13.7233 86.3087 0.0768217 69.0672 -0.700536C51.8254 -1.47789 50.0779 -0.688667 46.1929 1.05166C42.3081 2.79199 39.4325 5.65869 32.2786 6.9496C25.1246 8.24052 21.6828 7.94919 19.2679 10.193C16.8532 12.4368 -3.23853 1.71295 -3.23853 1.71295L-5.95947 8.84612C-5.95947 8.84612 24.3214 21.0854 26.1252 28.2683C27.9291 35.4514 20.1015 37.2668 18.0287 49.3441C15.956 61.4213 17.5075 77.3709 18.9828 84.532C20.458 91.6932 21.2128 96.0988 25.2107 103.627C29.2088 111.156 39.6649 121.538 44.4136 127.403C49.1624 133.266 49.4394 136.883 51.6602 135.724C53.8812 134.562 53.9557 127.124 54.7736 119.771C55.5913 112.418 58.1133 89.3167 55.0789 71.4558C52.0445 53.5949 40.8136 45.8045 38.1446 42.3393C35.4755 38.8738 31.8721 37.2343 33.8747 34.9288C35.8771 32.6234 37.7578 34.3553 39.6654 36.3306C41.5728 38.3058 80.5345 64.9634 80.6805 87.7849C80.3687 98.7421 72.8589 96.6128 70.1772 110.884C67.4957 125.155 68.8496 148.258 86.0335 168.607C98.7914 183.699 111.874 189.836 113.402 191.639C114.931 193.443 117.949 184.693 117.334 177.897C116.718 171.1 114.812 167.96 115.056 161.525C115.299 155.092 117.895 127.716 109.562 114.374C101.229 101.032 88.8759 97.6789 86.6847 92.08C84.4936 86.4809 82.249 79.9243 84.3422 79.6477C86.4354 79.3711 107.73 95.3892 116.368 106.75C119.285 110.437 116.463 114.621 119.612 125.516C122.761 136.41 139.06 168.058 146.129 177.719C153.199 187.381 159.416 188.83 163.565 196.542C167.717 204.252 170.919 206.233 172.434 205.979Z" fill="#616C2B"/>
<path d="M106.084 15.7935C96.2194 11.1767 75.9378 8.7746 65.8292 9.1298C55.7205 9.485 26.7775 10.4414 26.7775 10.4414C26.7775 10.4414 56.9781 11.3051 69.0661 11.5292C81.1541 11.7532 106.084 15.7935 106.084 15.7935ZM170.561 56.1931C159.029 50.2201 138.674 46.9307 132.552 46.6852C126.432 46.4396 95.7155 46.9009 91.3236 49.5439C110.583 48.4508 122.724 47.6766 133.751 48.3724C144.699 49.0721 153.143 51.6361 170.561 56.1931ZM49.285 117.046C41.0063 107.065 33.5256 87.925 32.0082 82.0355C30.4908 76.1462 24.5295 46.123 26.2148 41.295C29.1618 60.2767 30.9353 72.2494 33.9242 82.8467C36.8877 93.3527 41.1663 101.04 49.285 117.046ZM199.618 103.121C193.146 99.424 150.473 83.4146 130.675 85.8338C152.986 85.9552 199.618 103.121 199.618 103.121ZM165.05 175.429C161.413 164.715 132.513 115.214 128.516 111.408C132.633 120.663 165.05 175.429 165.05 175.429ZM106.872 169.66C101.497 163.977 75.1112 120.481 82.534 95.5413C83.6625 136.553 106.872 169.66 106.872 169.66Z" fill="#482B09"/>
</g>
<defs>
<clipPath id="clip0_289_8">
<rect width="218" height="207" fill="white" transform="translate(-11 -1)"/>
</clipPath>
</defs>
</svg>
